<?xml version="1.0" encoding="utf-8"?>
<!-- Generator: Adobe Illustrator 16.0.0, SVG Export Plug-In . SVG Version: 6.00 Build 0)  -->
<!DOCTYPE svg PUBLIC "-//W3C//DTD SVG 1.1//EN" "http://www.w3.org/Graphics/SVG/1.1/DTD/svg11.dtd">
<svg version="1.1" id="Capa_1" xmlns="http://www.w3.org/2000/svg" xmlns:xlink="http://www.w3.org/1999/xlink" x="0px" y="0px"
	 width="792px" height="612px" viewBox="0 0 792 612" enable-background="new 0 0 792 612" xml:space="preserve">
<g>
	<path fill="#8C8C8C" d="M609.806,390.028V529.83H182.174V390.028H99.983v180.896c0,22.682,18.374,41.075,41.157,41.075h509.7
		c22.763,0,41.157-18.373,41.157-41.075V390.028H609.806z"/>
	<path fill="#8C8C8C" d="M388.467,376.166l-117.672-142.19c0,0-17.904-16.904,1.511-16.904s66.308,0,66.308,0s0-11.371,0-28.907
		c0-49.997,0-140.986,0-178.08c0,0-2.633-10.085,12.556-10.085c15.311,0,82.374,0,93.337,0c10.942,0,10.697,8.493,10.697,8.493
		c0,35.971,0,130.104,0,178.468c0,15.679,0,25.845,0,25.845s37.604,0,61.204,0c23.56,0,5.818,17.7,5.818,17.7
		S422.11,363.407,408.146,377.351C398.103,387.456,388.467,376.166,388.467,376.166z"/>
</g>
</svg>
