<?xml version="1.0" encoding="utf-8"?>
<!-- Generator: Adobe Illustrator 16.0.0, SVG Export Plug-In . SVG Version: 6.00 Build 0)  -->
<!DOCTYPE svg PUBLIC "-//W3C//DTD SVG 1.1//EN" "http://www.w3.org/Graphics/SVG/1.1/DTD/svg11.dtd">
<svg version="1.1" id="Capa_1" xmlns="http://www.w3.org/2000/svg" xmlns:xlink="http://www.w3.org/1999/xlink" x="0px" y="0px"
	 width="792px" height="612px" viewBox="0 0 792 612" enable-background="new 0 0 792 612" xml:space="preserve">
<g>
	<path fill="#8C8C8C" d="M692.304,64.638H99.696c-5.354,0-9.696,4.34-9.696,9.697v463.33c0,5.356,4.342,9.696,9.696,9.696h592.607
		c5.358,0,9.696-4.34,9.696-9.696V74.335C702,68.979,697.662,64.638,692.304,64.638z M643.821,470.056L510.465,331.951
		c-1.475-1.521-3.885-1.621-5.475-0.221l-92.495,81.409L294.273,267.575c-0.768-0.95-1.891-1.494-3.161-1.466
		c-1.224,0.025-2.366,0.613-3.097,1.594L148.179,455.339V122.817h495.643V470.056L643.821,470.056z"/>
	<path fill="#8C8C8C" d="M497.364,262.88c26.255,0,47.569-21.297,47.569-47.573c0-26.268-21.314-47.576-47.569-47.576
		c-26.275,0-47.566,21.309-47.566,47.576C449.798,241.581,471.091,262.88,497.364,262.88z"/>
</g>
</svg>
