<?xml version="1.0" encoding="utf-8"?>
<!-- Generator: Adobe Illustrator 16.0.0, SVG Export Plug-In . SVG Version: 6.00 Build 0)  -->
<!DOCTYPE svg PUBLIC "-//W3C//DTD SVG 1.1//EN" "http://www.w3.org/Graphics/SVG/1.1/DTD/svg11.dtd">
<svg version="1.1" id="Layer_1" xmlns="http://www.w3.org/2000/svg" xmlns:xlink="http://www.w3.org/1999/xlink" x="0px" y="0px"
	 width="792px" height="612px" viewBox="0 0 792 612" enable-background="new 0 0 792 612" xml:space="preserve">
<rect x="-878" fill="#939598" width="792" height="612"/>
<rect x="-878" fill="#414042" width="792" height="95"/>
<path fill="#6D6E71" d="M-102,83.516c0,1.39-1.567,2.516-3.5,2.516h-676c-1.933,0-3.5-1.126-3.5-2.516l0,0
	c0-1.39,1.567-2.516,3.5-2.516h676C-103.567,81-102,82.126-102,83.516L-102,83.516z"/>
<path fill="none" stroke="#D1D3D4" stroke-miterlimit="10" d="M762,581c0,2.209-1.789,4-3.994,4H41.994
	c-2.205,0-3.994-1.791-3.994-4V46c0-2.209,1.789-4,3.994-4h716.012c2.205,0,3.994,1.791,3.994,4V581z"/>
<rect x="38" y="16" fill="#58595B" stroke="#F1F2F2" stroke-miterlimit="10" width="725" height="39"/>
<path fill="#F1F2F2" stroke="#58595B" stroke-miterlimit="10" d="M756,44.5c0,2.209-2.11,4-4.714,4H139.714
	c-2.604,0-4.714-1.791-4.714-4V26c0-2.209,2.11-4,4.714-4h611.572c2.604,0,4.714,1.791,4.714,4V44.5z"/>
<text transform="matrix(1.25 0 0 1 146 39)" fill="#808285" font-family="'ArialMT'" font-size="12">www.wireframe.com</text>
<circle fill="#CE2027" cx="58.354" cy="34.854" r="6.625"/>
<circle fill="#EFCA1A" cx="85" cy="34.854" r="6.625"/>
<circle fill="#339B47" cx="111" cy="34.854" r="6.625"/>
</svg>
