<?xml version="1.0" encoding="utf-8"?>
<!-- Generator: Adobe Illustrator 16.0.0, SVG Export Plug-In . SVG Version: 6.00 Build 0)  -->
<!DOCTYPE svg PUBLIC "-//W3C//DTD SVG 1.1//EN" "http://www.w3.org/Graphics/SVG/1.1/DTD/svg11.dtd">
<svg version="1.1" id="Layer_1" xmlns="http://www.w3.org/2000/svg" xmlns:xlink="http://www.w3.org/1999/xlink" x="0px" y="0px"
	 width="792px" height="612px" viewBox="0 0 792 612" enable-background="new 0 0 792 612" xml:space="preserve">
<rect x="-878" fill="#939598" width="792" height="612"/>
<rect x="-878" fill="#414042" width="792" height="95"/>
<path fill="#6D6E71" d="M-102,83.516c0,1.39-1.567,2.516-3.5,2.516h-676c-1.933,0-3.5-1.126-3.5-2.516l0,0
	c0-1.39,1.567-2.516,3.5-2.516h676C-103.567,81-102,82.126-102,83.516L-102,83.516z"/>
<g>
	<path fill="#8C8C8C" d="M645,168.85v287.398H141V168.85H645 M721.337,88.85H64.664c-2.022,0-3.664,1.476-3.664,3.296v440.808
		c0,1.819,1.642,3.295,3.664,3.295h656.673c2.021,0,3.663-1.476,3.663-3.295V92.146C725,90.325,723.357,88.85,721.337,88.85
		L721.337,88.85z"/>
</g>
<rect x="61" y="60" fill="#58595B" stroke="#F1F2F2" stroke-miterlimit="10" width="664" height="64.139"/>
<path fill="#F1F2F2" stroke="#58595B" stroke-miterlimit="10" d="M714.926,102.922c0,2.779-1.934,5.032-4.317,5.032H150.492
	c-2.384,0-4.317-2.253-4.317-5.032V79.648c0-2.778,1.934-5.032,4.317-5.032h560.116c2.384,0,4.317,2.253,4.317,5.032V102.922z"/>
<ellipse fill="#CE2027" cx="-44.775" cy="92.07" rx="12.515" ry="11.333"/>
<ellipse fill="#EFCA1A" cx="-26.192" cy="47.5" rx="6.067" ry="5.495"/>
<ellipse fill="#339B47" cx="-38.707" cy="11" rx="6.068" ry="5.495"/>
<circle fill="#339B47" cx="88.5" cy="90.016" r="10.5"/>
<circle fill="#EFCA1A" cx="121.5" cy="91" r="10.5"/>
</svg>
